<mxfile host="app.diagrams.net" agent="Mozilla/5.0 (Windows NT 10.0; Win64; x64) AppleWebKit/537.36 (KHTML, like Gecko) Chrome/127.0.0.0 Safari/537.36" version="24.7.6">
  <diagram name="第 1 页" id="QvBiN7-p0yWH9Qva56an">
    <mxGraphModel dx="2442" dy="815" grid="1" gridSize="10" guides="1" tooltips="1" connect="1" arrows="1" fold="1" page="1" pageScale="1" pageWidth="827" pageHeight="1169" math="0" shadow="0">
      <root>
        <mxCell id="0" />
        <mxCell id="1" parent="0" />
        <mxCell id="QCqNEh41sCfGE4JeCzuN-13" style="edgeStyle=orthogonalEdgeStyle;rounded=0;orthogonalLoop=1;jettySize=auto;html=1;exitX=0.5;exitY=0;exitDx=0;exitDy=0;entryX=0.5;entryY=1;entryDx=0;entryDy=0;strokeWidth=2;" edge="1" parent="1" source="QCqNEh41sCfGE4JeCzuN-3" target="QCqNEh41sCfGE4JeCzuN-11">
          <mxGeometry relative="1" as="geometry" />
        </mxCell>
        <mxCell id="QCqNEh41sCfGE4JeCzuN-75" style="edgeStyle=orthogonalEdgeStyle;rounded=0;orthogonalLoop=1;jettySize=auto;html=1;entryX=1;entryY=0.5;entryDx=0;entryDy=0;strokeColor=#336600;strokeWidth=2;" edge="1" parent="1" source="QCqNEh41sCfGE4JeCzuN-3" target="QCqNEh41sCfGE4JeCzuN-60">
          <mxGeometry relative="1" as="geometry" />
        </mxCell>
        <mxCell id="QCqNEh41sCfGE4JeCzuN-3" value="&lt;font size=&quot;1&quot; face=&quot;Helvetica&quot; style=&quot;&quot;&gt;&lt;b style=&quot;font-size: 20px;&quot;&gt;LSTM&lt;/b&gt;&lt;/font&gt;" style="rounded=1;whiteSpace=wrap;html=1;fillColor=#ffcccc;strokeColor=#36393d;strokeWidth=3;fontSize=31;" vertex="1" parent="1">
          <mxGeometry x="-582" y="302" width="170" height="47" as="geometry" />
        </mxCell>
        <mxCell id="QCqNEh41sCfGE4JeCzuN-9" style="rounded=0;orthogonalLoop=1;jettySize=auto;html=1;exitX=0.5;exitY=0;exitDx=0;exitDy=0;edgeStyle=orthogonalEdgeStyle;entryX=0.5;entryY=1;entryDx=0;entryDy=0;strokeWidth=2;" edge="1" parent="1" source="QCqNEh41sCfGE4JeCzuN-4" target="QCqNEh41sCfGE4JeCzuN-7">
          <mxGeometry relative="1" as="geometry">
            <mxPoint x="-660" y="231.9999999999999" as="targetPoint" />
          </mxGeometry>
        </mxCell>
        <mxCell id="QCqNEh41sCfGE4JeCzuN-10" style="edgeStyle=orthogonalEdgeStyle;rounded=0;orthogonalLoop=1;jettySize=auto;html=1;exitX=0.5;exitY=0;exitDx=0;exitDy=0;strokeWidth=2;" edge="1" parent="1" source="QCqNEh41sCfGE4JeCzuN-4" target="QCqNEh41sCfGE4JeCzuN-3">
          <mxGeometry relative="1" as="geometry" />
        </mxCell>
        <mxCell id="QCqNEh41sCfGE4JeCzuN-4" value="" style="whiteSpace=wrap;align=center;verticalAlign=middle;fontStyle=1;strokeWidth=3;fillColor=#fad7ac;strokeColor=#b46504;rounded=1;arcSize=43;movable=1;resizable=1;rotatable=1;deletable=1;editable=1;locked=0;connectable=1;fontSize=16;" vertex="1" parent="1">
          <mxGeometry x="-635" y="437" width="60" height="40" as="geometry" />
        </mxCell>
        <mxCell id="QCqNEh41sCfGE4JeCzuN-5" value="&lt;span&gt;&lt;font style=&quot;font-size: 16px;&quot;&gt;X&lt;/font&gt;&lt;sub&gt;0&lt;/sub&gt;&lt;/span&gt;" style="text;html=1;align=center;verticalAlign=middle;resizable=0;points=[];autosize=1;strokeColor=none;fillColor=none;fontStyle=1;rounded=1;" vertex="1" parent="1">
          <mxGeometry x="-626" y="436" width="40" height="40" as="geometry" />
        </mxCell>
        <mxCell id="QCqNEh41sCfGE4JeCzuN-14" style="edgeStyle=orthogonalEdgeStyle;rounded=0;orthogonalLoop=1;jettySize=auto;html=1;entryX=0.5;entryY=1;entryDx=0;entryDy=0;exitX=0.5;exitY=0;exitDx=0;exitDy=0;strokeWidth=2;" edge="1" parent="1" source="QCqNEh41sCfGE4JeCzuN-7" target="QCqNEh41sCfGE4JeCzuN-11">
          <mxGeometry relative="1" as="geometry" />
        </mxCell>
        <mxCell id="QCqNEh41sCfGE4JeCzuN-67" style="edgeStyle=orthogonalEdgeStyle;rounded=0;orthogonalLoop=1;jettySize=auto;html=1;exitX=1;exitY=0.5;exitDx=0;exitDy=0;entryX=0;entryY=0.5;entryDx=0;entryDy=0;strokeColor=#004C99;strokeWidth=2;" edge="1" parent="1" source="QCqNEh41sCfGE4JeCzuN-7" target="QCqNEh41sCfGE4JeCzuN-33">
          <mxGeometry relative="1" as="geometry" />
        </mxCell>
        <mxCell id="QCqNEh41sCfGE4JeCzuN-7" value="&lt;font size=&quot;1&quot; face=&quot;Helvetica&quot; style=&quot;&quot;&gt;&lt;b style=&quot;font-size: 20px;&quot;&gt;LSTM&lt;/b&gt;&lt;/font&gt;" style="rounded=1;whiteSpace=wrap;html=1;fillColor=#ffcccc;strokeColor=#36393d;strokeWidth=3;fontSize=31;" vertex="1" parent="1">
          <mxGeometry x="-690" y="183" width="170" height="47" as="geometry" />
        </mxCell>
        <mxCell id="QCqNEh41sCfGE4JeCzuN-11" value="" style="whiteSpace=wrap;align=center;verticalAlign=middle;fontStyle=1;strokeWidth=3;fillColor=#fad7ac;strokeColor=#b46504;rounded=1;arcSize=43;movable=1;resizable=1;rotatable=1;deletable=1;editable=1;locked=0;connectable=1;fontSize=16;" vertex="1" parent="1">
          <mxGeometry x="-526" y="31" width="60" height="40" as="geometry" />
        </mxCell>
        <mxCell id="QCqNEh41sCfGE4JeCzuN-12" value="&lt;span&gt;&lt;font style=&quot;font-size: 16px;&quot;&gt;Y&lt;/font&gt;&lt;sub&gt;0&lt;/sub&gt;&lt;/span&gt;" style="text;html=1;align=center;verticalAlign=middle;resizable=0;points=[];autosize=1;strokeColor=none;fillColor=none;fontStyle=1;rounded=1;" vertex="1" parent="1">
          <mxGeometry x="-517" y="30" width="40" height="40" as="geometry" />
        </mxCell>
        <mxCell id="QCqNEh41sCfGE4JeCzuN-26" style="edgeStyle=orthogonalEdgeStyle;rounded=0;orthogonalLoop=1;jettySize=auto;html=1;exitX=0.5;exitY=0;exitDx=0;exitDy=0;entryX=0.5;entryY=1;entryDx=0;entryDy=0;strokeWidth=2;" edge="1" parent="1" source="QCqNEh41sCfGE4JeCzuN-27" target="QCqNEh41sCfGE4JeCzuN-34">
          <mxGeometry relative="1" as="geometry" />
        </mxCell>
        <mxCell id="QCqNEh41sCfGE4JeCzuN-74" style="edgeStyle=orthogonalEdgeStyle;rounded=0;orthogonalLoop=1;jettySize=auto;html=1;entryX=1;entryY=0.5;entryDx=0;entryDy=0;strokeColor=#336600;strokeWidth=2;" edge="1" parent="1" source="QCqNEh41sCfGE4JeCzuN-27" target="QCqNEh41sCfGE4JeCzuN-3">
          <mxGeometry relative="1" as="geometry" />
        </mxCell>
        <mxCell id="QCqNEh41sCfGE4JeCzuN-27" value="&lt;font size=&quot;1&quot; face=&quot;Helvetica&quot; style=&quot;&quot;&gt;&lt;b style=&quot;font-size: 20px;&quot;&gt;LSTM&lt;/b&gt;&lt;/font&gt;" style="rounded=1;whiteSpace=wrap;html=1;fillColor=#ffcccc;strokeColor=#36393d;strokeWidth=3;fontSize=31;" vertex="1" parent="1">
          <mxGeometry x="-323" y="302" width="170" height="47" as="geometry" />
        </mxCell>
        <mxCell id="QCqNEh41sCfGE4JeCzuN-28" style="rounded=0;orthogonalLoop=1;jettySize=auto;html=1;exitX=0.5;exitY=0;exitDx=0;exitDy=0;edgeStyle=orthogonalEdgeStyle;entryX=0.5;entryY=1;entryDx=0;entryDy=0;strokeWidth=2;" edge="1" parent="1" source="QCqNEh41sCfGE4JeCzuN-30" target="QCqNEh41sCfGE4JeCzuN-33">
          <mxGeometry relative="1" as="geometry">
            <mxPoint x="-401" y="231.9999999999999" as="targetPoint" />
          </mxGeometry>
        </mxCell>
        <mxCell id="QCqNEh41sCfGE4JeCzuN-29" style="edgeStyle=orthogonalEdgeStyle;rounded=0;orthogonalLoop=1;jettySize=auto;html=1;exitX=0.5;exitY=0;exitDx=0;exitDy=0;strokeWidth=2;" edge="1" parent="1" source="QCqNEh41sCfGE4JeCzuN-30" target="QCqNEh41sCfGE4JeCzuN-27">
          <mxGeometry relative="1" as="geometry" />
        </mxCell>
        <mxCell id="QCqNEh41sCfGE4JeCzuN-30" value="" style="whiteSpace=wrap;align=center;verticalAlign=middle;fontStyle=1;strokeWidth=3;fillColor=#fad7ac;strokeColor=#b46504;rounded=1;arcSize=43;movable=1;resizable=1;rotatable=1;deletable=1;editable=1;locked=0;connectable=1;fontSize=16;" vertex="1" parent="1">
          <mxGeometry x="-376" y="437" width="60" height="40" as="geometry" />
        </mxCell>
        <mxCell id="QCqNEh41sCfGE4JeCzuN-31" value="&lt;span&gt;&lt;font style=&quot;font-size: 16px;&quot;&gt;X&lt;/font&gt;&lt;sub&gt;1&lt;/sub&gt;&lt;/span&gt;" style="text;html=1;align=center;verticalAlign=middle;resizable=0;points=[];autosize=1;strokeColor=none;fillColor=none;fontStyle=1;rounded=1;" vertex="1" parent="1">
          <mxGeometry x="-367" y="436" width="40" height="40" as="geometry" />
        </mxCell>
        <mxCell id="QCqNEh41sCfGE4JeCzuN-32" style="edgeStyle=orthogonalEdgeStyle;rounded=0;orthogonalLoop=1;jettySize=auto;html=1;entryX=0.5;entryY=1;entryDx=0;entryDy=0;exitX=0.5;exitY=0;exitDx=0;exitDy=0;strokeWidth=2;" edge="1" parent="1" source="QCqNEh41sCfGE4JeCzuN-33" target="QCqNEh41sCfGE4JeCzuN-34">
          <mxGeometry relative="1" as="geometry" />
        </mxCell>
        <mxCell id="QCqNEh41sCfGE4JeCzuN-68" style="edgeStyle=orthogonalEdgeStyle;rounded=0;orthogonalLoop=1;jettySize=auto;html=1;exitX=1;exitY=0.5;exitDx=0;exitDy=0;strokeColor=#004C99;strokeWidth=2;" edge="1" parent="1" source="QCqNEh41sCfGE4JeCzuN-33">
          <mxGeometry relative="1" as="geometry">
            <mxPoint x="-170" y="206.23076923076928" as="targetPoint" />
          </mxGeometry>
        </mxCell>
        <mxCell id="QCqNEh41sCfGE4JeCzuN-33" value="&lt;font size=&quot;1&quot; face=&quot;Helvetica&quot; style=&quot;&quot;&gt;&lt;b style=&quot;font-size: 20px;&quot;&gt;LSTM&lt;/b&gt;&lt;/font&gt;" style="rounded=1;whiteSpace=wrap;html=1;fillColor=#ffcccc;strokeColor=#36393d;strokeWidth=3;fontSize=31;" vertex="1" parent="1">
          <mxGeometry x="-431" y="183" width="170" height="47" as="geometry" />
        </mxCell>
        <mxCell id="QCqNEh41sCfGE4JeCzuN-34" value="" style="whiteSpace=wrap;align=center;verticalAlign=middle;fontStyle=1;strokeWidth=3;fillColor=#fad7ac;strokeColor=#b46504;rounded=1;arcSize=43;movable=1;resizable=1;rotatable=1;deletable=1;editable=1;locked=0;connectable=1;fontSize=16;" vertex="1" parent="1">
          <mxGeometry x="-268" y="31" width="60" height="40" as="geometry" />
        </mxCell>
        <mxCell id="QCqNEh41sCfGE4JeCzuN-35" value="&lt;span&gt;&lt;font style=&quot;font-size: 16px;&quot;&gt;Y&lt;/font&gt;&lt;sub&gt;1&lt;/sub&gt;&lt;/span&gt;" style="text;html=1;align=center;verticalAlign=middle;resizable=0;points=[];autosize=1;strokeColor=none;fillColor=none;fontStyle=1;rounded=1;" vertex="1" parent="1">
          <mxGeometry x="-259" y="30" width="40" height="40" as="geometry" />
        </mxCell>
        <mxCell id="QCqNEh41sCfGE4JeCzuN-36" style="edgeStyle=orthogonalEdgeStyle;rounded=0;orthogonalLoop=1;jettySize=auto;html=1;exitX=0.5;exitY=0;exitDx=0;exitDy=0;entryX=0.5;entryY=1;entryDx=0;entryDy=0;strokeWidth=2;" edge="1" parent="1" source="QCqNEh41sCfGE4JeCzuN-37" target="QCqNEh41sCfGE4JeCzuN-44">
          <mxGeometry relative="1" as="geometry" />
        </mxCell>
        <mxCell id="QCqNEh41sCfGE4JeCzuN-73" style="edgeStyle=orthogonalEdgeStyle;rounded=0;orthogonalLoop=1;jettySize=auto;html=1;strokeColor=#336600;strokeWidth=2;" edge="1" parent="1" source="QCqNEh41sCfGE4JeCzuN-37" target="QCqNEh41sCfGE4JeCzuN-27">
          <mxGeometry relative="1" as="geometry" />
        </mxCell>
        <mxCell id="QCqNEh41sCfGE4JeCzuN-37" value="&lt;font size=&quot;1&quot; face=&quot;Helvetica&quot; style=&quot;&quot;&gt;&lt;b style=&quot;font-size: 20px;&quot;&gt;LSTM&lt;/b&gt;&lt;/font&gt;" style="rounded=1;whiteSpace=wrap;html=1;fillColor=#ffcccc;strokeColor=#36393d;strokeWidth=3;fontSize=31;" vertex="1" parent="1">
          <mxGeometry x="-61" y="302" width="170" height="47" as="geometry" />
        </mxCell>
        <mxCell id="QCqNEh41sCfGE4JeCzuN-38" style="rounded=0;orthogonalLoop=1;jettySize=auto;html=1;exitX=0.5;exitY=0;exitDx=0;exitDy=0;edgeStyle=orthogonalEdgeStyle;entryX=0.5;entryY=1;entryDx=0;entryDy=0;strokeWidth=2;" edge="1" parent="1" source="QCqNEh41sCfGE4JeCzuN-40" target="QCqNEh41sCfGE4JeCzuN-43">
          <mxGeometry relative="1" as="geometry">
            <mxPoint x="-139" y="231.9999999999999" as="targetPoint" />
          </mxGeometry>
        </mxCell>
        <mxCell id="QCqNEh41sCfGE4JeCzuN-39" style="edgeStyle=orthogonalEdgeStyle;rounded=0;orthogonalLoop=1;jettySize=auto;html=1;exitX=0.5;exitY=0;exitDx=0;exitDy=0;strokeWidth=2;" edge="1" parent="1" source="QCqNEh41sCfGE4JeCzuN-40" target="QCqNEh41sCfGE4JeCzuN-37">
          <mxGeometry relative="1" as="geometry" />
        </mxCell>
        <mxCell id="QCqNEh41sCfGE4JeCzuN-40" value="" style="whiteSpace=wrap;align=center;verticalAlign=middle;fontStyle=1;strokeWidth=3;fillColor=#fad7ac;strokeColor=#b46504;rounded=1;arcSize=43;movable=1;resizable=1;rotatable=1;deletable=1;editable=1;locked=0;connectable=1;fontSize=16;" vertex="1" parent="1">
          <mxGeometry x="-114" y="437" width="60" height="40" as="geometry" />
        </mxCell>
        <mxCell id="QCqNEh41sCfGE4JeCzuN-41" value="&lt;span&gt;&lt;font style=&quot;font-size: 16px;&quot;&gt;X&lt;/font&gt;&lt;sub&gt;2&lt;/sub&gt;&lt;/span&gt;" style="text;html=1;align=center;verticalAlign=middle;resizable=0;points=[];autosize=1;strokeColor=none;fillColor=none;fontStyle=1;rounded=1;" vertex="1" parent="1">
          <mxGeometry x="-105" y="436" width="40" height="40" as="geometry" />
        </mxCell>
        <mxCell id="QCqNEh41sCfGE4JeCzuN-42" style="edgeStyle=orthogonalEdgeStyle;rounded=0;orthogonalLoop=1;jettySize=auto;html=1;entryX=0.5;entryY=1;entryDx=0;entryDy=0;exitX=0.5;exitY=0;exitDx=0;exitDy=0;strokeWidth=2;" edge="1" parent="1" source="QCqNEh41sCfGE4JeCzuN-43" target="QCqNEh41sCfGE4JeCzuN-44">
          <mxGeometry relative="1" as="geometry" />
        </mxCell>
        <mxCell id="QCqNEh41sCfGE4JeCzuN-69" style="edgeStyle=orthogonalEdgeStyle;rounded=0;orthogonalLoop=1;jettySize=auto;html=1;exitX=1;exitY=0.5;exitDx=0;exitDy=0;entryX=0;entryY=0.5;entryDx=0;entryDy=0;strokeColor=#004C99;dashed=1;strokeWidth=2;" edge="1" parent="1" source="QCqNEh41sCfGE4JeCzuN-43" target="QCqNEh41sCfGE4JeCzuN-53">
          <mxGeometry relative="1" as="geometry" />
        </mxCell>
        <mxCell id="QCqNEh41sCfGE4JeCzuN-43" value="&lt;font size=&quot;1&quot; face=&quot;Helvetica&quot; style=&quot;&quot;&gt;&lt;b style=&quot;font-size: 20px;&quot;&gt;LSTM&lt;/b&gt;&lt;/font&gt;" style="rounded=1;whiteSpace=wrap;html=1;fillColor=#ffcccc;strokeColor=#36393d;strokeWidth=3;fontSize=31;" vertex="1" parent="1">
          <mxGeometry x="-169" y="183" width="170" height="47" as="geometry" />
        </mxCell>
        <mxCell id="QCqNEh41sCfGE4JeCzuN-44" value="" style="whiteSpace=wrap;align=center;verticalAlign=middle;fontStyle=1;strokeWidth=3;fillColor=#fad7ac;strokeColor=#b46504;rounded=1;arcSize=43;movable=1;resizable=1;rotatable=1;deletable=1;editable=1;locked=0;connectable=1;fontSize=16;" vertex="1" parent="1">
          <mxGeometry x="-6" y="31" width="60" height="40" as="geometry" />
        </mxCell>
        <mxCell id="QCqNEh41sCfGE4JeCzuN-45" value="&lt;span&gt;&lt;font style=&quot;font-size: 16px;&quot;&gt;Y&lt;/font&gt;&lt;sub&gt;2&lt;/sub&gt;&lt;/span&gt;" style="text;html=1;align=center;verticalAlign=middle;resizable=0;points=[];autosize=1;strokeColor=none;fillColor=none;fontStyle=1;rounded=1;" vertex="1" parent="1">
          <mxGeometry x="3" y="30" width="40" height="40" as="geometry" />
        </mxCell>
        <mxCell id="QCqNEh41sCfGE4JeCzuN-46" style="edgeStyle=orthogonalEdgeStyle;rounded=0;orthogonalLoop=1;jettySize=auto;html=1;exitX=0.5;exitY=0;exitDx=0;exitDy=0;entryX=0.5;entryY=1;entryDx=0;entryDy=0;strokeWidth=2;" edge="1" parent="1" source="QCqNEh41sCfGE4JeCzuN-47" target="QCqNEh41sCfGE4JeCzuN-54">
          <mxGeometry relative="1" as="geometry" />
        </mxCell>
        <mxCell id="QCqNEh41sCfGE4JeCzuN-72" style="edgeStyle=orthogonalEdgeStyle;rounded=0;orthogonalLoop=1;jettySize=auto;html=1;entryX=1;entryY=0.5;entryDx=0;entryDy=0;strokeColor=#336600;dashed=1;strokeWidth=2;" edge="1" parent="1" source="QCqNEh41sCfGE4JeCzuN-47" target="QCqNEh41sCfGE4JeCzuN-37">
          <mxGeometry relative="1" as="geometry">
            <mxPoint x="135" y="325.5" as="targetPoint" />
          </mxGeometry>
        </mxCell>
        <mxCell id="QCqNEh41sCfGE4JeCzuN-47" value="&lt;font size=&quot;1&quot; face=&quot;Helvetica&quot; style=&quot;&quot;&gt;&lt;b style=&quot;font-size: 20px;&quot;&gt;LSTM&lt;/b&gt;&lt;/font&gt;" style="rounded=1;whiteSpace=wrap;html=1;fillColor=#ffcccc;strokeColor=#36393d;strokeWidth=3;fontSize=31;" vertex="1" parent="1">
          <mxGeometry x="253" y="302" width="170" height="47" as="geometry" />
        </mxCell>
        <mxCell id="QCqNEh41sCfGE4JeCzuN-48" style="rounded=0;orthogonalLoop=1;jettySize=auto;html=1;exitX=0.5;exitY=0;exitDx=0;exitDy=0;edgeStyle=orthogonalEdgeStyle;entryX=0.5;entryY=1;entryDx=0;entryDy=0;strokeWidth=2;" edge="1" parent="1" source="QCqNEh41sCfGE4JeCzuN-50" target="QCqNEh41sCfGE4JeCzuN-53">
          <mxGeometry relative="1" as="geometry">
            <mxPoint x="175" y="231.9999999999999" as="targetPoint" />
          </mxGeometry>
        </mxCell>
        <mxCell id="QCqNEh41sCfGE4JeCzuN-49" style="edgeStyle=orthogonalEdgeStyle;rounded=0;orthogonalLoop=1;jettySize=auto;html=1;exitX=0.5;exitY=0;exitDx=0;exitDy=0;strokeWidth=2;" edge="1" parent="1" source="QCqNEh41sCfGE4JeCzuN-50" target="QCqNEh41sCfGE4JeCzuN-47">
          <mxGeometry relative="1" as="geometry" />
        </mxCell>
        <mxCell id="QCqNEh41sCfGE4JeCzuN-50" value="" style="whiteSpace=wrap;align=center;verticalAlign=middle;fontStyle=1;strokeWidth=3;fillColor=#fad7ac;strokeColor=#b46504;rounded=1;arcSize=43;movable=1;resizable=1;rotatable=1;deletable=1;editable=1;locked=0;connectable=1;fontSize=16;" vertex="1" parent="1">
          <mxGeometry x="200" y="437" width="60" height="40" as="geometry" />
        </mxCell>
        <mxCell id="QCqNEh41sCfGE4JeCzuN-51" value="&lt;span&gt;&lt;font style=&quot;font-size: 16px;&quot;&gt;X&lt;/font&gt;&lt;sub&gt;i&lt;/sub&gt;&lt;/span&gt;" style="text;html=1;align=center;verticalAlign=middle;resizable=0;points=[];autosize=1;strokeColor=none;fillColor=none;fontStyle=1;rounded=1;" vertex="1" parent="1">
          <mxGeometry x="209" y="436" width="40" height="40" as="geometry" />
        </mxCell>
        <mxCell id="QCqNEh41sCfGE4JeCzuN-52" style="edgeStyle=orthogonalEdgeStyle;rounded=0;orthogonalLoop=1;jettySize=auto;html=1;entryX=0.5;entryY=1;entryDx=0;entryDy=0;exitX=0.5;exitY=0;exitDx=0;exitDy=0;strokeWidth=2;" edge="1" parent="1" source="QCqNEh41sCfGE4JeCzuN-53" target="QCqNEh41sCfGE4JeCzuN-54">
          <mxGeometry relative="1" as="geometry" />
        </mxCell>
        <mxCell id="QCqNEh41sCfGE4JeCzuN-70" style="edgeStyle=orthogonalEdgeStyle;rounded=0;orthogonalLoop=1;jettySize=auto;html=1;exitX=1;exitY=0.5;exitDx=0;exitDy=0;strokeColor=#004C99;strokeWidth=2;" edge="1" parent="1" source="QCqNEh41sCfGE4JeCzuN-53" target="QCqNEh41sCfGE4JeCzuN-62">
          <mxGeometry relative="1" as="geometry" />
        </mxCell>
        <mxCell id="QCqNEh41sCfGE4JeCzuN-53" value="&lt;font size=&quot;1&quot; face=&quot;Helvetica&quot; style=&quot;&quot;&gt;&lt;b style=&quot;font-size: 20px;&quot;&gt;LSTM&lt;/b&gt;&lt;/font&gt;" style="rounded=1;whiteSpace=wrap;html=1;fillColor=#ffcccc;strokeColor=#36393d;strokeWidth=3;fontSize=31;" vertex="1" parent="1">
          <mxGeometry x="145" y="183" width="170" height="47" as="geometry" />
        </mxCell>
        <mxCell id="QCqNEh41sCfGE4JeCzuN-54" value="" style="whiteSpace=wrap;align=center;verticalAlign=middle;fontStyle=1;strokeWidth=3;fillColor=#fad7ac;strokeColor=#b46504;rounded=1;arcSize=43;movable=1;resizable=1;rotatable=1;deletable=1;editable=1;locked=0;connectable=1;fontSize=16;" vertex="1" parent="1">
          <mxGeometry x="309" y="31" width="60" height="40" as="geometry" />
        </mxCell>
        <mxCell id="QCqNEh41sCfGE4JeCzuN-55" value="&lt;font style=&quot;font-size: 16px;&quot;&gt;Y&lt;sub&gt;i&lt;/sub&gt;&lt;/font&gt;" style="text;html=1;align=center;verticalAlign=middle;resizable=0;points=[];autosize=1;strokeColor=none;fillColor=none;fontStyle=1;rounded=1;" vertex="1" parent="1">
          <mxGeometry x="318" y="30" width="40" height="40" as="geometry" />
        </mxCell>
        <mxCell id="QCqNEh41sCfGE4JeCzuN-66" style="edgeStyle=orthogonalEdgeStyle;rounded=0;orthogonalLoop=1;jettySize=auto;html=1;entryX=0;entryY=0.5;entryDx=0;entryDy=0;strokeColor=#004C99;strokeWidth=2;" edge="1" parent="1" source="QCqNEh41sCfGE4JeCzuN-58" target="QCqNEh41sCfGE4JeCzuN-7">
          <mxGeometry relative="1" as="geometry" />
        </mxCell>
        <mxCell id="QCqNEh41sCfGE4JeCzuN-58" value="" style="whiteSpace=wrap;align=center;verticalAlign=middle;fontStyle=1;strokeWidth=3;fillColor=#dae8fc;strokeColor=#6c8ebf;rounded=1;arcSize=43;movable=1;resizable=1;rotatable=1;deletable=1;editable=1;locked=0;connectable=1;fontSize=16;" vertex="1" parent="1">
          <mxGeometry x="-809" y="186.5" width="60" height="40" as="geometry" />
        </mxCell>
        <mxCell id="QCqNEh41sCfGE4JeCzuN-59" value="&lt;font style=&quot;font-size: 16px;&quot;&gt;S&#39;&lt;/font&gt;&lt;sub&gt;i&lt;/sub&gt;" style="text;html=1;align=center;verticalAlign=middle;resizable=0;points=[];autosize=1;fontStyle=1;rounded=1;" vertex="1" parent="1">
          <mxGeometry x="-800" y="185.5" width="40" height="40" as="geometry" />
        </mxCell>
        <mxCell id="QCqNEh41sCfGE4JeCzuN-60" value="" style="whiteSpace=wrap;align=center;verticalAlign=middle;fontStyle=1;strokeWidth=3;fillColor=#dae8fc;strokeColor=#6c8ebf;rounded=1;arcSize=43;movable=1;resizable=1;rotatable=1;deletable=1;editable=1;locked=0;connectable=1;fontSize=16;" vertex="1" parent="1">
          <mxGeometry x="-810" y="305.5" width="60" height="40" as="geometry" />
        </mxCell>
        <mxCell id="QCqNEh41sCfGE4JeCzuN-61" value="&lt;span&gt;&lt;font style=&quot;font-size: 16px;&quot;&gt;S&lt;/font&gt;&lt;sub&gt;0&lt;/sub&gt;&lt;/span&gt;" style="text;html=1;align=center;verticalAlign=middle;resizable=0;points=[];autosize=1;fontStyle=1;rounded=1;" vertex="1" parent="1">
          <mxGeometry x="-801" y="304.5" width="40" height="40" as="geometry" />
        </mxCell>
        <mxCell id="QCqNEh41sCfGE4JeCzuN-62" value="" style="whiteSpace=wrap;align=center;verticalAlign=middle;fontStyle=1;strokeWidth=3;fillColor=#dae8fc;strokeColor=#6c8ebf;rounded=1;arcSize=43;movable=1;resizable=1;rotatable=1;deletable=1;editable=1;locked=0;connectable=1;fontSize=16;" vertex="1" parent="1">
          <mxGeometry x="485" y="186.5" width="60" height="40" as="geometry" />
        </mxCell>
        <mxCell id="QCqNEh41sCfGE4JeCzuN-63" value="&lt;font style=&quot;font-size: 16px;&quot;&gt;S&#39;&lt;/font&gt;&lt;sub&gt;0&lt;/sub&gt;" style="text;html=1;align=center;verticalAlign=middle;resizable=0;points=[];autosize=1;fontStyle=1;rounded=1;" vertex="1" parent="1">
          <mxGeometry x="494" y="185.5" width="40" height="40" as="geometry" />
        </mxCell>
        <mxCell id="QCqNEh41sCfGE4JeCzuN-71" style="edgeStyle=orthogonalEdgeStyle;rounded=0;orthogonalLoop=1;jettySize=auto;html=1;strokeColor=#336600;strokeWidth=2;entryX=1;entryY=0.5;entryDx=0;entryDy=0;" edge="1" parent="1" source="QCqNEh41sCfGE4JeCzuN-64" target="QCqNEh41sCfGE4JeCzuN-47">
          <mxGeometry relative="1" as="geometry">
            <mxPoint x="424.99999999999955" y="325.5" as="targetPoint" />
          </mxGeometry>
        </mxCell>
        <mxCell id="QCqNEh41sCfGE4JeCzuN-64" value="" style="whiteSpace=wrap;align=center;verticalAlign=middle;fontStyle=1;strokeWidth=3;fillColor=#dae8fc;strokeColor=#6c8ebf;rounded=1;arcSize=43;movable=1;resizable=1;rotatable=1;deletable=1;editable=1;locked=0;connectable=1;fontSize=16;" vertex="1" parent="1">
          <mxGeometry x="484" y="305.5" width="60" height="40" as="geometry" />
        </mxCell>
        <mxCell id="QCqNEh41sCfGE4JeCzuN-65" value="&lt;span style=&quot;font-size: 16px;&quot;&gt;S&lt;/span&gt;&lt;span style=&quot;font-size: 13.3333px;&quot;&gt;&lt;sub&gt;i&lt;/sub&gt;&lt;/span&gt;" style="text;html=1;align=center;verticalAlign=middle;resizable=0;points=[];autosize=1;fontStyle=1;rounded=1;" vertex="1" parent="1">
          <mxGeometry x="493" y="304.5" width="40" height="40" as="geometry" />
        </mxCell>
      </root>
    </mxGraphModel>
  </diagram>
</mxfile>
